<?xml version="1.0" encoding="utf-8"?>
<!-- Generator: Adobe Illustrator 16.0.0, SVG Export Plug-In . SVG Version: 6.00 Build 0)  -->
<!DOCTYPE svg PUBLIC "-//W3C//DTD SVG 1.1//EN" "http://www.w3.org/Graphics/SVG/1.1/DTD/svg11.dtd">
<svg version="1.1" id="Layer_1" xmlns="http://www.w3.org/2000/svg" xmlns:xlink="http://www.w3.org/1999/xlink" x="0px" y="0px"
	 width="303.668px" height="108.333px" viewBox="0 0 303.668 108.333" enable-background="new 0 0 303.668 108.333"
	 xml:space="preserve">
<path fill="#242322" d="M297.137,16.257c0-5.477-3.871-10.591-9.513-10.591H30.827c-5.64,0-8.84,4.324-10.212,9.915L5.666,92.305
	c0,5.477,4.574,9.914,10.212,9.914h259.966c5.643,0,8.771-4.402,10.211-9.914L297.137,16.257z"/>
<path fill="#A6CD3A" d="M287.624,5.667c5.642,0,9.513,5.114,9.513,10.591l-11.082,76.048c-1.44,5.512-4.568,9.914-10.211,9.914
	H15.878c-5.639,0-10.212-4.438-10.212-9.914l14.948-76.724c1.372-5.591,4.572-9.915,10.213-9.915H287.624 M287.624,1.667H30.828
	c-6.937,0-12.076,4.724-14.098,12.961l-0.022,0.094l-0.019,0.094L1.741,91.541l-0.074,0.379v0.386
	c0,7.674,6.375,13.914,14.212,13.914h259.966c6.806,0,11.938-4.701,14.082-12.902l0.055-0.215l0.033-0.22l11.082-76.049l0.041-0.286
	v-0.29C301.137,8.211,295.074,1.667,287.624,1.667"/>
<polygon fill="#A6CD3A" points="112.813,53.245 125.459,17.812 136.238,17.812 126.45,67.717 119.036,67.717 126.392,31.929 
	113.622,67.717 106.206,67.717 107.783,32.428 100.363,67.717 93.519,67.717 103.691,17.812 114.47,17.812 "/>
<polygon fill="#FFFFFF" points="46.255,53.245 59.454,17.812 70.232,17.812 59.665,67.717 52.251,67.717 60.167,31.929 
	46.834,67.717 39.42,67.717 41.549,32.428 33.575,67.717 26.732,67.717 37.687,17.812 48.465,17.812 "/>
<path fill="#FFFFFF" d="M72.942,29.79c1.527-7.985,6.555-12.547,14.164-12.547c7.608,0,10.913,4.562,9.432,12.547l-5.78,25.948
	c-1.486,7.985-6.539,12.548-14.239,12.548c-7.699,0-11.031-4.562-9.503-12.548L72.942,29.79z M74.739,56.239
	c-0.675,3.564,0.635,4.919,3.125,4.919c2.49,0,4.312-1.354,4.98-4.919l6.016-26.948c0.669-3.563-0.629-4.92-3.099-4.92
	c-2.469,0-4.279,1.356-4.952,4.92L74.739,56.239z"/>
<polygon fill="#FFFFFF" points="145.009,38.842 155.701,38.842 154.48,45.972 143.771,45.972 141.23,60.587 154.75,60.587 
	153.533,67.717 132.151,67.717 141.871,17.813 163.007,17.813 161.792,24.941 148.385,24.941 "/>
<polygon fill="#FFFFFF" points="172.394,31.572 165.369,67.717 158.31,67.717 167.724,17.813 177.445,17.813 179.512,47.683 
	185.408,17.813 192.311,17.813 183.188,67.717 175.13,67.717 "/>
<polygon fill="#FFFFFF" points="195.76,17.813 219.712,17.813 218.594,24.941 210.48,24.941 202.716,67.717 194.875,67.717 
	202.716,24.941 194.602,24.941 "/>
<path fill="#FFFFFF" d="M230.632,17.813l-6.909,38.497c-0.552,3.563,0.815,4.849,3.308,4.849s4.252-1.285,4.795-4.849l6.838-38.497
	h7.324l-6.691,37.999c-1.205,7.983-5.889,12.545-13.585,12.545c-7.701,0-10.979-4.562-9.729-12.545l6.9-37.999H230.632z"/>
<polygon fill="#FFFFFF" points="261.562,53.245 272.969,17.812 283.746,17.812 275.702,67.717 268.289,67.717 274.395,31.929 
	262.874,67.717 255.458,67.717 255.802,32.428 249.614,67.717 242.771,67.717 251.203,17.812 261.978,17.812 "/>
<polygon fill="#FFFFFF" points="195.857,75.819 187.261,75.819 185.91,82.754 193.623,82.754 193.259,84.623 185.544,84.623 
	183.909,92.987 181.857,92.987 185.572,73.948 196.22,73.948 "/>
<polygon fill="#FFFFFF" points="197.571,92.988 195.52,92.988 199.234,73.948 201.285,73.948 "/>
<polygon fill="#FFFFFF" points="217.934,75.819 211.803,75.819 208.455,92.987 206.404,92.987 209.751,75.819 203.623,75.819 
	203.988,73.948 218.298,73.948 "/>
<polygon fill="#FFFFFF" points="231.413,93.272 231.129,93.351 222.167,78.417 219.31,92.988 217.259,92.988 221.025,73.689 
	221.441,73.584 230.322,88.286 233.126,73.948 235.181,73.948 "/>
<polygon fill="#FFFFFF" points="249.622,75.819 241.025,75.819 239.752,82.389 247.439,82.389 247.074,84.261 239.388,84.261 
	238.038,91.118 246.661,91.118 246.297,92.987 235.621,92.987 239.336,73.948 249.984,73.948 "/>
<path fill="#FFFFFF" d="M261.311,76.858c-1.04-0.832-2.235-1.272-3.562-1.272c-2.285,0-3.48,1.61-3.48,3.401
	c0,1.716,1.354,2.623,2.807,3.559c1.766,1.143,3.688,2.363,3.688,5.118c0,2.726-1.819,5.634-5.974,5.634
	c-2.027,0-4.156-0.83-5.636-2.104l1.115-1.662c1.324,1.117,2.937,1.818,4.521,1.818c2.726,0,3.871-1.479,3.871-3.429
	c0-1.922-1.562-2.882-3.146-3.946c-1.66-1.091-3.351-2.285-3.351-4.728c0-2.935,2.312-5.611,5.844-5.611
	c1.613,0,3.272,0.677,4.391,1.56L261.311,76.858z"/>
<path fill="#FFFFFF" d="M274.167,76.858c-1.04-0.832-2.235-1.272-3.559-1.272c-2.287,0-3.48,1.61-3.48,3.401
	c0,1.716,1.349,2.623,2.803,3.559c1.768,1.143,3.689,2.363,3.689,5.118c0,2.726-1.816,5.634-5.974,5.634
	c-2.024,0-4.156-0.83-5.636-2.104l1.117-1.662c1.325,1.117,2.935,1.818,4.519,1.818c2.729,0,3.872-1.479,3.872-3.429
	c0-1.922-1.56-2.882-3.144-3.946c-1.662-1.091-3.352-2.285-3.352-4.728c0-2.935,2.312-5.611,5.846-5.611
	c1.609,0,3.272,0.677,4.39,1.56L274.167,76.858z"/>
<polygon fill="#A6CD3A" points="24.623,79.983 23.215,86.633 26.687,86.633 28.096,79.983 "/>
<polygon fill="#A6CD3A" points="37.701,79.983 36.292,86.633 42.415,86.633 43.823,79.983 "/>
<polygon fill="#A6CD3A" points="52.433,79.983 51.024,86.633 60.479,86.633 61.886,79.983 "/>
<polygon fill="#A6CD3A" points="68.517,79.983 67.109,86.633 83.964,86.633 85.371,79.983 "/>
<polygon fill="#FFFFFF" points="90.952,79.983 89.544,86.633 124.22,86.633 125.626,79.983 "/>
<polygon fill="#A6CD3A" points="129.488,79.983 128.08,86.633 179.062,86.633 180.47,79.983 "/>
</svg>
